<svg xmlns="http://www.w3.org/2000/svg" width="260" height="160" viewBox="0 0 260 160" role="img" aria-labelledby="title desc">
  <title id="title">Ambulatory center facility</title>
  <desc id="desc">Compact fictional ambulatory center component with visible identity badge and low-rise arc silhouette; type cue, not a throughput claim.</desc>
  <style>:root { --facility-primary: #315a89; --facility-secondary: #c2872f; --facility-paper: #f8fbfd; } .label { font-family: system-ui, sans-serif; }</style>
  <rect width="260" height="160" fill="var(--facility-paper)"/>
  <rect x="24" y="76" width="212" height="56" rx="18" fill="var(--facility-primary)"/>
  <path d="M44 76c10-38 48-58 86-58s76 20 86 58" fill="var(--facility-primary)"/>
  <path d="M48 94h22v18H48zm34 0h22v18H82zm34 0h22v18h-22zm34 0h22v18h-22z" fill="var(--facility-paper)" opacity=".9"/>
  <path d="M130 18v27M118 31h24" stroke="var(--facility-secondary)" stroke-linecap="round" stroke-width="7"/>
  <rect x="118" y="104" width="24" height="28" fill="var(--facility-paper)"/><path d="M130 110v16M123 118h14" stroke="var(--facility-secondary)" stroke-width="4"/>
  <rect x="28" y="82" width="36" height="25" rx="4" fill="var(--facility-paper)" stroke="var(--facility-secondary)" stroke-width="3"/><text x="46" y="99" text-anchor="middle" fill="#17232d" class="label" font-size="14" font-weight="800">ID</text>
  <text x="130" y="151" text-anchor="middle" fill="#17232d" class="label" font-size="13" font-weight="700">AMBULATORY CENTER</text>
</svg>
