<svg xmlns="http://www.w3.org/2000/svg" width="260" height="160" viewBox="0 0 260 160" role="img" aria-labelledby="title desc"><title id="title">General hospital base facility</title><desc id="desc">Compact fictional general hospital base component with visible identity badge and capacity bars.</desc><style>:root { --facility-primary: #315a89; --facility-secondary: #c2872f; --facility-paper: #f8fbfd; } .label { font-family: system-ui, sans-serif; }</style><rect width="260" height="160" fill="var(--facility-paper)"/><rect x="24" y="54" width="208" height="78" rx="7" fill="var(--facility-primary)"/><rect x="48" y="38" width="72" height="94" rx="6" fill="var(--facility-primary)"/><path d="M38 54h180M62 72h14v18H62zm34 0h14v18H96zm34 0h14v18h-14zm34 0h14v18h-14z" fill="var(--facility-paper)" opacity=".9"/><path d="M66 38h36M84 24v28M66 38h36" fill="none" stroke="var(--facility-secondary)" stroke-linecap="round" stroke-width="7"/><rect x="122" y="101" width="22" height="31" fill="var(--facility-paper)"/><path d="M133 108v15M126 115h14" stroke="var(--facility-secondary)" stroke-width="4"/><rect x="30" y="42" width="36" height="25" rx="4" fill="var(--facility-paper)" stroke="var(--facility-secondary)" stroke-width="3"/><text x="48" y="59" text-anchor="middle" fill="#17232d" class="label" font-size="14" font-weight="800">ID</text><text x="130" y="151" text-anchor="middle" fill="#17232d" class="label" font-size="13" font-weight="700">GENERAL HOSPITAL BASE</text></svg>
