<svg xmlns="http://www.w3.org/2000/svg" width="260" height="160" viewBox="0 0 260 160" role="img" aria-labelledby="title desc">
  <title id="title">Research and education building facility</title>
  <desc id="desc">Compact fictional research and education building component with visible identity badge and wing-and-tower silhouette; type cue, not a research or education outcome claim.</desc>
  <style>:root { --facility-primary: #315a89; --facility-secondary: #c2872f; --facility-paper: #f8fbfd; } .label { font-family: system-ui, sans-serif; }</style>
  <rect width="260" height="160" fill="var(--facility-paper)"/>
  <rect x="28" y="80" width="204" height="52" rx="5" fill="var(--facility-primary)"/>
  <rect x="62" y="54" width="136" height="30" rx="4" fill="var(--facility-primary)"/>
  <path d="M78 54V36h104v18" fill="none" stroke="var(--facility-secondary)" stroke-width="5"/>
  <path d="M52 96h24v18H52zm40 0h24v18H92zm40 0h24v18h-24zm40 0h24v18h-24z" fill="var(--facility-paper)" opacity=".9"/>
  <path d="M130 36v18M118 45h24" stroke="var(--facility-secondary)" stroke-width="5"/>
  <rect x="118" y="104" width="24" height="28" fill="var(--facility-paper)"/><path d="M130 110v16M123 118h14" stroke="var(--facility-secondary)" stroke-width="4"/>
  <rect x="32" y="72" width="36" height="25" rx="4" fill="var(--facility-paper)" stroke="var(--facility-secondary)" stroke-width="3"/><text x="50" y="89" text-anchor="middle" fill="#17232d" class="label" font-size="14" font-weight="800">ID</text>
  <text x="130" y="151" text-anchor="middle" fill="#17232d" class="label" font-size="13" font-weight="700">RESEARCH / EDUCATION</text>
</svg>
