<svg xmlns="http://www.w3.org/2000/svg" width="260" height="160" viewBox="0 0 260 160" role="img" aria-labelledby="title desc"><title id="title">Rural clinic facility</title><desc id="desc">Compact fictional rural clinic component with visible identity badge and pitched roof silhouette; type cue, not an access or quality claim.</desc><style>:root { --facility-primary: #315a89; --facility-secondary: #c2872f; --facility-paper: #f8fbfd; } .label { font-family: system-ui, sans-serif; }</style><rect width="260" height="160" fill="var(--facility-paper)"/><rect x="38" y="76" width="184" height="56" rx="6" fill="var(--facility-primary)"/><path d="M30 76 130 20l100 56z" fill="var(--facility-primary)"/><path d="M60 94h22v18H60zm36 0h22v18H96zm36 0h22v18h-22zm36 0h22v18h-22z" fill="var(--facility-paper)" opacity=".9"/><path d="M130 20v28M118 34h24" stroke="var(--facility-secondary)" stroke-linecap="round" stroke-width="7"/><rect x="118" y="104" width="24" height="28" fill="var(--facility-paper)"/><path d="M130 110v16M123 118h14" stroke="var(--facility-secondary)" stroke-width="4"/><rect x="42" y="82" width="36" height="25" rx="4" fill="var(--facility-paper)" stroke="var(--facility-secondary)" stroke-width="3"/><text x="60" y="99" text-anchor="middle" fill="#17232d" class="label" font-size="14" font-weight="800">ID</text><text x="130" y="151" text-anchor="middle" fill="#17232d" class="label" font-size="13" font-weight="700">RURAL CLINIC</text></svg>
