<svg xmlns="http://www.w3.org/2000/svg" width="260" height="160" viewBox="0 0 260 160" role="img" aria-labelledby="title desc">
  <title id="title">Undeveloped parcel facility</title>
  <desc id="desc">Compact fictional undeveloped parcel component with visible identity badge and dashed parcel-boundary silhouette; type cue, not a development potential, ownership, or future use claim.</desc>
  <style>:root { --facility-primary: #315a89; --facility-secondary: #c2872f; --facility-paper: #f8fbfd; } .label { font-family: system-ui, sans-serif; }</style>
  <rect width="260" height="160" fill="var(--facility-paper)"/>
  <path d="M28 128 56 48l164 14 12 68z" fill="var(--facility-primary)" opacity=".84"/>
  <path d="M28 128 56 48l164 14 12 68z" fill="none" stroke="var(--facility-secondary)" stroke-width="6" stroke-dasharray="10 6"/>
  <path d="M56 48 112 28l108 34M112 28l-8 100" fill="none" stroke="var(--facility-paper)" stroke-width="4" opacity=".9"/>
  <path d="M68 104h28v18H68zm48 0h28v18h-28zm48 0h28v18h-28z" fill="var(--facility-paper)" opacity=".7"/>
  <rect x="118" y="104" width="24" height="28" fill="var(--facility-paper)"/><path d="M130 110v16M123 118h14" stroke="var(--facility-secondary)" stroke-width="4"/>
  <rect x="32" y="58" width="36" height="25" rx="4" fill="var(--facility-paper)" stroke="var(--facility-secondary)" stroke-width="3"/><text x="50" y="75" text-anchor="middle" fill="#17232d" class="label" font-size="14" font-weight="800">ID</text>
  <text x="130" y="151" text-anchor="middle" fill="#17232d" class="label" font-size="13" font-weight="700">UNDEVELOPED PARCEL</text>
</svg>
