<svg xmlns="http://www.w3.org/2000/svg" width="260" height="160" viewBox="0 0 260 160" role="img" aria-labelledby="title desc"><title id="title">Utility plant facility</title><desc id="desc">Compact fictional utility plant component with visible identity badge and pipe-and-tank silhouette; type cue, not a reliability, safety, or service claim.</desc><style>:root { --facility-primary: #315a89; --facility-secondary: #c2872f; --facility-paper: #f8fbfd; } .label { font-family: system-ui, sans-serif; }</style><rect width="260" height="160" fill="var(--facility-paper)"/><rect x="28" y="78" width="204" height="54" rx="5" fill="var(--facility-primary)"/><rect x="46" y="64" width="68" height="20" fill="var(--facility-primary)"/><path d="M64 64V34h18v30M78 34h46v30" fill="none" stroke="var(--facility-primary)" stroke-width="8"/><circle cx="190" cy="64" r="22" fill="var(--facility-primary)"/><path d="M190 42v44M168 64h44" stroke="var(--facility-secondary)" stroke-width="5"/><path d="M58 94h28v18H58zm48 0h28v18h-28zm48 0h28v18h-28z" fill="var(--facility-paper)" opacity=".9"/><rect x="118" y="104" width="24" height="28" fill="var(--facility-paper)"/><path d="M130 110v16M123 118h14" stroke="var(--facility-secondary)" stroke-width="4"/><rect x="32" y="70" width="36" height="25" rx="4" fill="var(--facility-paper)" stroke="var(--facility-secondary)" stroke-width="3"/><text x="50" y="87" text-anchor="middle" fill="#17232d" class="label" font-size="14" font-weight="800">ID</text><text x="130" y="151" text-anchor="middle" fill="#17232d" class="label" font-size="13" font-weight="700">UTILITY PLANT</text></svg>
